<?xml version="1.0" encoding="utf-8"?>
<!DOCTYPE svg PUBLIC "-//W3C//DTD SVG 1.1//EN" "http://www.w3.org/Graphics/SVG/1.1/DTD/svg11.dtd">
<svg version="1.1" id="Layer_1" xmlns="http://www.w3.org/2000/svg" xmlns:xlink="http://www.w3.org/1999/xlink" x="0px" y="0px"
	 width="512px" height="512px" viewBox="0 0 512 512" enable-background="new 0 0 512 512" xml:space="preserve">
<g fill="rgba(255,255,255,.05)">
	<polygon points="485.446,227.276 485.444,227.282 485.446,227.29 	"/>
	<polygon points="485.446,227.081 485.444,227.089 485.446,227.096 	"/>
	<path d="M485.65,224.348c-0.04-3.193-26.032-5.697-58.496-5.896c0.005-0.024,0.013-0.049,0.013-0.073v-1.409v-0.018
		v-0.006c0-0.398-0.589-0.759-1.509-1.002l-0.275-2.267v-0.002l0,0c-0.002-0.274-0.489-0.515-1.205-0.648v-17.565
		c0-0.207-0.551-0.369-1.223-0.369c-0.67,0-1.223,0.162-1.223,0.369v17.565c-0.714,0.133-1.203,0.374-1.203,0.648c0,0,0,0,0-0.002
		v0.002l-0.275,2.267c-0.92,0.243-1.509,0.604-1.509,1.002v0.006v0.018v1.409c0,0.024,0.008,0.049,0.013,0.073
		c-4.539,0.028-8.95,0.1-13.181,0.215c0.588-1.372,0.75-2.643,0.429-3.776c0.016,0.037,0.037,0.073,0.052,0.11
		c-0.024-0.063-0.068-0.18-0.121-0.322c-0.013-0.04-0.024-0.081-0.04-0.12c-0.162-0.429-0.382-1.017-0.654-1.741
		c-0.002-0.005-0.003-0.008-0.005-0.013c-0.002-0.003-0.003-0.008-0.005-0.011c-0.055-0.147-0.113-0.301-0.173-0.46
		c-0.013-0.052-0.024-0.084-0.036-0.096c-0.008-0.021-0.016-0.044-0.024-0.065c-0.074-0.24-0.159-0.47-0.259-0.687
		c-3.214-8.543-10.995-29.225-16.229-43.137c-0.204-2.044-0.542-4.128-0.952-5.219c-0.413-1.1-1.137-1.841-1.844-2.212
		c-0.513-1.362-0.957-2.542-1.316-3.499c-0.002-0.006-0.003-0.011-0.005-0.018c-0.11-0.295-0.628-1.681-0.709-1.898
		c-0.157-0.416-0.385-0.798-0.669-1.153c-0.013-0.016-0.026-0.031-0.039-0.045c-0.13-0.159-0.272-0.311-0.426-0.458
		c-0.023-0.023-0.049-0.044-0.071-0.066c-0.152-0.139-0.314-0.272-0.487-0.4c-0.028-0.021-0.057-0.042-0.086-0.063
		c-0.181-0.13-0.374-0.253-0.578-0.371c-0.023-0.013-0.045-0.028-0.07-0.04c-0.704-0.397-1.532-0.729-2.479-0.993
		c-0.006-0.002-0.013-0.003-0.019-0.005c-0.296-0.083-0.604-0.157-0.921-0.227c-0.068-0.015-0.138-0.028-0.206-0.042
		c-0.262-0.053-0.531-0.105-0.808-0.151c-0.096-0.016-0.191-0.031-0.288-0.045c-0.261-0.039-0.528-0.076-0.8-0.108
		c-0.108-0.013-0.215-0.026-0.325-0.037c-0.279-0.029-0.564-0.055-0.855-0.078c-0.105-0.008-0.209-0.018-0.316-0.024
		c-0.332-0.023-0.672-0.039-1.017-0.052c-0.068-0.003-0.134-0.006-0.202-0.008c-0.429-0.013-0.866-0.023-1.315-0.021
		c-0.222,0-0.457,0.01-0.683,0.013c-0.257,0.005-0.51,0.005-0.772,0.015c-0.274,0.008-0.557,0.024-0.839,0.039
		c-0.24,0.011-0.478,0.021-0.722,0.037c-0.29,0.018-0.588,0.042-0.884,0.065c-0.246,0.019-0.491,0.037-0.74,0.06
		c-0.303,0.028-0.609,0.058-0.918,0.091c-0.254,0.026-0.51,0.053-0.769,0.084c-0.311,0.036-0.625,0.074-0.942,0.115
		c-0.267,0.034-0.536,0.071-0.806,0.109c-0.317,0.044-0.636,0.089-0.959,0.138c-0.283,0.042-0.568,0.089-0.855,0.136
		c-0.319,0.052-0.638,0.102-0.962,0.159c-0.308,0.053-0.622,0.112-0.934,0.17c-0.309,0.057-0.617,0.112-0.931,0.173
		c-0.424,0.083-0.855,0.173-1.286,0.262c-0.368,0.076-0.737,0.155-1.109,0.238c-0.474,0.104-0.949,0.209-1.43,0.322
		c-0.254,0.06-0.513,0.125-0.771,0.188c-0.416,0.1-0.831,0.201-1.252,0.308c-0.27,0.07-0.544,0.143-0.816,0.214
		c-0.415,0.108-0.831,0.219-1.25,0.334c-0.274,0.075-0.547,0.152-0.823,0.23c-0.427,0.12-0.857,0.243-1.287,0.369
		c-0.269,0.079-0.538,0.159-0.806,0.24c-0.45,0.134-0.902,0.274-1.355,0.416c-0.254,0.079-0.508,0.159-0.764,0.24
		c-0.487,0.155-0.976,0.316-1.467,0.479c-0.225,0.074-0.45,0.147-0.677,0.225c-0.57,0.193-1.143,0.392-1.718,0.594
		c-0.149,0.052-0.296,0.102-0.445,0.155c-0.737,0.262-1.477,0.533-2.218,0.811c-14.674,5.52-26.558,12.822-32.002,19.071
		c-2.662,3.052-3.788,5.855-2.952,8.075c0.065,0.172,0.483,1.273,0.565,1.491c0.002,0,0.002-0.002,0.003-0.003
		c0.06,0.159,0.123,0.327,0.188,0.5c0.005,0.013,0.006,0.026,0.011,0.037c0.003,0.01,0.01,0.019,0.013,0.029
		c0.785,2.089,1.95,5.18,3.337,8.872l-12.372,4.602c-0.073-0.015-0.146-0.028-0.222-0.04v-1.338c0-0.219-0.521-0.4-1.26-0.481v-4.44
		c1.705-0.032,2.989-0.164,2.989-0.314v-1.373c0-0.176-1.729-0.313-3.841-0.313s-3.841,0.136-3.841,0.313v1.373
		c0,0.152,1.286,0.282,2.989,0.314v4.44c-0.74,0.081-1.26,0.262-1.26,0.481v1.338c-1.019,0.167-1.694,0.455-1.694,0.789v3.242
		c0,0.266,0.424,0.508,1.109,0.687v7.684c-0.453,0.133-0.808,0.288-1.004,0.474c-1.741,0.962-3.258,2.288-4.604,2.876
		c-0.716-0.188-1.652-0.301-2.675-0.301c-1.022,0-1.956,0.113-2.67,0.303c-1.347-0.586-2.865-1.916-4.609-2.879
		c-0.196-0.186-0.552-0.342-1.004-0.474v-7.684c0.683-0.178,1.109-0.421,1.109-0.687v-3.242c0-0.335-0.675-0.622-1.694-0.789v-1.338
		c0-0.219-0.521-0.4-1.26-0.481v-4.44c1.705-0.032,2.989-0.164,2.989-0.314v-1.373c0-0.176-1.729-0.313-3.841-0.313
		s-3.841,0.136-3.841,0.313v1.373c0,0.152,1.286,0.282,2.989,0.314v4.44c-0.74,0.081-1.26,0.262-1.26,0.481v1.338
		c-0.076,0.013-0.149,0.026-0.222,0.04l-12.132-4.513c1.043-2.774,1.916-5.089,2.537-6.743c0.233-0.615,0.632-1.655,0.708-1.857
		c0.028-0.075,0.044-0.154,0.068-0.23c0.024-0.074,0.047-0.151,0.066-0.227c0.036-0.139,0.066-0.279,0.089-0.421
		c0.016-0.096,0.031-0.193,0.04-0.29c0.01-0.099,0.019-0.199,0.024-0.3c0.006-0.146,0.006-0.293,0.002-0.44
		c-0.003-0.097-0.01-0.196-0.019-0.295c-0.013-0.155-0.032-0.313-0.058-0.471c-0.016-0.094-0.036-0.188-0.055-0.283
		c-0.028-0.134-0.06-0.269-0.097-0.405c-0.032-0.118-0.068-0.238-0.105-0.358c-0.044-0.138-0.092-0.277-0.144-0.418
		c-0.04-0.11-0.084-0.219-0.13-0.33c-0.066-0.16-0.139-0.322-0.217-0.484c-0.04-0.086-0.081-0.172-0.125-0.259
		c-0.097-0.193-0.204-0.389-0.316-0.585c-0.05-0.087-0.1-0.173-0.152-0.262c-0.12-0.199-0.246-0.4-0.379-0.602
		c-0.057-0.086-0.115-0.17-0.173-0.256c-0.143-0.207-0.29-0.416-0.447-0.627c-0.06-0.079-0.121-0.16-0.183-0.24
		c-0.144-0.188-0.293-0.376-0.447-0.565c-0.079-0.097-0.16-0.194-0.243-0.291c-0.159-0.188-0.322-0.376-0.491-0.565
		c-0.073-0.081-0.143-0.162-0.217-0.245c-0.198-0.217-0.403-0.434-0.615-0.653c-0.089-0.092-0.18-0.186-0.272-0.279
		c-0.211-0.212-0.426-0.426-0.648-0.64c-0.104-0.1-0.211-0.201-0.317-0.303c-0.223-0.211-0.452-0.423-0.687-0.635
		c-0.117-0.105-0.238-0.212-0.358-0.317c-0.194-0.172-0.392-0.343-0.594-0.517c-0.173-0.147-0.35-0.296-0.528-0.445
		c-0.172-0.142-0.347-0.287-0.523-0.431c-0.22-0.18-0.445-0.359-0.674-0.539c-0.165-0.13-0.332-0.261-0.5-0.39
		c-0.253-0.194-0.51-0.39-0.772-0.586c-0.162-0.121-0.324-0.241-0.487-0.363c-0.207-0.152-0.416-0.303-0.627-0.455
		c-0.062-0.044-0.125-0.087-0.186-0.131c-0.41-0.291-0.826-0.583-1.253-0.874c-0.06-0.04-0.12-0.081-0.18-0.121
		c-0.444-0.301-0.897-0.602-1.359-0.904c-0.037-0.024-0.073-0.047-0.11-0.071c-5.051-3.281-11.175-6.532-18.028-9.473
		c-0.246-0.105-0.504-0.207-0.753-0.313c-0.495-0.209-0.996-0.418-1.499-0.623c-0.57-0.233-1.142-0.465-1.721-0.693
		c-0.502-0.199-1.009-0.395-1.517-0.591c-0.298-0.113-0.588-0.233-0.887-0.345c-4.252-1.6-8.433-2.958-12.456-4.071
		c8.165-0.604,14.572-1.938,18.653-3.992c0.253-0.128,0.497-0.257,0.732-0.39c2.116-1.197,3.496-2.615,4.04-4.256
		c0.058-0.173,0.105-0.35,0.144-0.528c0.502-2.434-0.784-5.13-3.593-7.978c-0.434-0.44-0.904-0.883-1.41-1.329
		c-1.265-1.116-2.748-2.252-4.439-3.402c-0.675-0.46-1.384-0.921-2.126-1.384c-1.851-1.159-3.903-2.329-6.137-3.501
		c-1.04-0.546-2.125-1.093-3.243-1.64c-1.284-0.628-2.614-1.257-3.996-1.885c-0.674-0.306-1.365-0.612-2.061-0.918
		c-0.747-0.327-1.508-0.656-2.28-0.983c-0.327-0.138-0.656-0.277-0.988-0.415c-1.516-0.633-3.075-1.263-4.681-1.89
		c-2.374-0.928-4.843-1.848-7.402-2.758c-2.4-0.853-4.879-1.699-7.426-2.533c-0.334-0.108-0.667-0.219-1.004-0.327
		c-1.885-0.61-3.805-1.214-5.763-1.81c-0.711-0.215-1.425-0.431-2.144-0.646c-1.44-0.428-2.895-0.852-4.369-1.271
		c-0.737-0.211-1.478-0.418-2.223-0.625c-2.081-0.578-4.196-1.148-6.338-1.707c-0.926-0.241-1.857-0.483-2.795-0.721
		c-5.434-1.378-11.049-2.686-16.797-3.907c-0.28-0.06-0.559-0.117-0.839-0.175c-0.062-1.383-0.434-2.967-1.077-4.503l-1.321-3.158
		c0.389-1.305,0.126-3.269-0.659-5.149l-1.859-4.44c-0.057-0.142-0.115-0.285-0.178-0.428l-0.003-0.006
		c-0.002-0.003-0.003-0.006-0.005-0.01c-0.735-1.806-1.895-3.224-3.022-3.698c-0.847-0.356-1.576-0.138-2.029,0.567
		c-0.152,0.235-0.272,0.523-0.358,0.861c-0.317,1.265-0.079,3.043,0.607,4.709c-0.353,0.348-0.625,0.86-0.79,1.521
		c-0.439,1.749-0.063,4.259,0.975,6.537c0,0,0,0,0,0.002l2.393,5.719c-48.955-9.449-89.619-8.731-92.096,2.628
		c-1.24,6.003,8.38,13.79,24.868,21.472c1.031,0.481,2.091,0.962,3.175,1.441c5.425,2.398,11.499,4.772,18.097,7.068
		c2.639,0.918,5.363,1.823,8.163,2.712c2.1,0.667,4.243,1.325,6.425,1.971c2.91,0.861,5.891,1.705,8.934,2.525
		c0.761,0.206,1.525,0.408,2.295,0.61c3.533,0.928,7.148,1.825,10.828,2.685l-29.081,48.114l-1.624-0.023
		c-2.452-0.034-5.159,1.177-7.203,3.512c-3.263,3.731-3.598,8.88-0.748,11.495c0.11,0.102,0.227,0.194,0.343,0.287l-20.989,34.728
		c-0.361,0.52-0.408,1.197-0.121,1.762c0.287,0.565,0.86,0.928,1.493,0.946c0.633,0.018,1.226-0.314,1.542-0.863l20.575-34.041
		l0.81,4.466c0,0.28,0.46,0.538,1.195,0.722v74.793c-1.514,0.228-2.533,0.638-2.533,1.122v7.216c0,0.429,0.8,0.815,2.035,1.065
		v41.231c-1.347,0.235-2.252,0.619-2.252,1.07v2.236l-50.553,64.672c-0.186-0.162-0.356-0.191-0.483-0.029l-8.142,10.415
		c-1.124,1.438,3.135,3.609,6.098-0.181l3.571-4.566c0.282-0.359,0.39-0.897,0.385-1.503c0.33-0.295,0.635-0.607,0.894-0.939
		l33.285-42.58l15.202,10.93v1.875c0,0.738,2.372,1.355,5.266,1.355c0.679,0,1.326-0.036,1.925-0.097l0.921,11.842
		c-0.238,0.126-0.377,0.269-0.366,0.408l0.288,3.742c0.028,0.356,0.993,0.559,2.144,0.47c1.151-0.089,2.073-0.439,2.045-0.795
		l-0.288-3.742c-0.011-0.141-0.172-0.259-0.429-0.348l-0.991-12.746c0.008-0.029,0.018-0.058,0.018-0.089v-2.06l8.828-7.276v11.635
		c0,0.008,0.008,0.015,0.008,0.021c0.005,0.034,0.013,0.073-0.013,0.099c-0.01,0.011-0.026,0.019-0.052,0.026
		c0.063-0.016,0.133,0.021,0.209,0.099c-0.078-0.078-0.146-0.113-0.209-0.099l-4.999,1.24c-2.599,0.645-2.937,1.117-2.936,3.697
		v1.499c0,0.259,0.839,0.455,1.854,0.455c1.015,0,1.843-0.196,1.843-0.455v-1.511c0-0.032-0.011-0.055-0.037-0.086
		c-0.023-0.029-0.055-0.071-0.099-0.099c0.052,0.031,0.073,0.065,0.099,0.099c0.019,0.028,0.049,0.057,0.049,0.086
		c0-0.084,0.05-0.087,0.096-0.094c0.005,0,0.01,0.003,0.013,0.002l3.227-0.798l1.773-0.436c2.499-0.619,2.873-1.069,2.874-3.731
		c0-0.005,0.006-0.01,0.006-0.015v-14.692l0.123-0.1l31.285,44.722c0.003,0.483,0.096,0.912,0.313,1.224l3.32,4.753
		c2.754,3.945,7.123,2.006,6.079,0.51l-7.569-10.838c-0.126-0.181-0.314-0.147-0.526,0.037l-33.026-47.211l-0.002-33.959
		c2.78,0.981,5.959,1.927,9.47,2.814v0.005l0.491,0.117c0.975,0.243,1.972,0.481,2.994,0.714l1.083,0.257l0.002-0.015
		c6.212,1.373,13.236,2.565,20.763,3.473v37.924c0,0.066,0.068,0.128,0.178,0.185l0.157,2.264c-0.073,0.042-0.113,0.089-0.113,0.139
		v2.026c0,0.196,0.632,0.361,1.402,0.361s1.402-0.164,1.402-0.361v-2.026c0-0.05-0.04-0.097-0.113-0.139l0.157-2.264
		c0.11-0.057,0.178-0.118,0.178-0.185v-37.553c0.965,0.104,1.937,0.204,2.915,0.298c3.441,0.332,6.808,0.583,10.087,0.768
		l0.002,44.589c-0.457,0.115-0.74,0.274-0.74,0.452l-0.245,3.522c-0.316,0.126-0.502,0.277-0.502,0.439v4.817
		c0,0.468,1.503,0.858,3.337,0.858c1.833,0,3.337-0.39,3.337-0.858v-4.817c0-0.164-0.186-0.313-0.502-0.439l-0.245-3.522
		c0-0.18-0.287-0.338-0.746-0.453l-0.002-44.411c3.478,0.141,6.838,0.204,10.032,0.186c5.47-0.032,10.459-0.295,14.799-0.768v15.149
		h-3.63c-0.04-2.073-0.198-3.634-0.382-3.634h-1.668c-0.214,0-0.379,2.102-0.379,4.668s0.165,4.668,0.379,4.668h1.668
		c0.185,0,0.342-1.561,0.382-3.634h3.63v11.094l-4.222,12.142c-0.743-0.034-1.26,0.099-1.37,0.415l-1.354,3.896
		c-0.11,0.316,0.209,0.75,0.811,1.195l-9.951,28.621c-0.426-0.439-0.75-0.599-0.863-0.324l-5.898,14.342
		c-0.815,1.979,5.621,5.781,7.768,0.562l2.586-6.289c0.172-0.416,0.131-1.035-0.047-1.755l11.596-33.351
		c0.389,0.013,0.714-0.021,0.954-0.1c0.015,0.586,0.057,1.049,0.157,1.422c0.076,0.285,0.183,0.518,0.335,0.714
		c0.102,0.131,0.222,0.246,0.366,0.35c0.432,0.311,1.07,0.52,2.01,0.751l1.784,0.439l3.216,0.797
		c0.005,0.002,0.01-0.003,0.013-0.002c0.045,0.006,0.096,0.01,0.096,0.094c0-0.029,0.029-0.058,0.049-0.086
		c0.024-0.034,0.047-0.068,0.099-0.099c-0.042,0.028-0.074,0.07-0.099,0.099c-0.024,0.031-0.037,0.053-0.037,0.086v1.511
		c0,0.259,0.826,0.453,1.843,0.455c1.017,0.002,1.854-0.196,1.854-0.455v-1.499c0.002-2.58-0.337-3.052-2.936-3.697l-4.999-1.24
		c-0.063-0.016-0.131,0.021-0.209,0.099c0.076-0.078,0.146-0.113,0.209-0.099c-0.096-0.024-0.063-0.092-0.062-0.143v-0.002V371.64
		l3.311-9.523h3.63c4.52,38.914,39.339,69.214,81.594,69.214c21.763,0,41.558-8.041,56.26-21.153l-5.337,7.63
		c-0.039-0.034-0.076-0.058-0.112-0.079c-0.005-0.002-0.008-0.003-0.011-0.006c-0.113-0.058-0.212-0.047-0.285,0.057l-5.878,8.419
		c-0.306,0.439-0.013,0.926,0.588,1.198c0.986,0.452,2.805,0.317,4.137-1.59l2.578-3.694c0.026-0.036,0.045-0.079,0.066-0.12
		c0.003-0.005,0.005-0.01,0.008-0.015c0.115-0.227,0.17-0.51,0.173-0.823l16.611-23.754l7.68-10.979l1.112,0.915l8.722,7.186v1.602
		c0,0.005,0.003,0.01,0.003,0.016c0.002,0.016,0.006,0.034,0.01,0.05l-0.136,1.75l-0.635,8.152
		c-0.152,0.052-0.256,0.118-0.303,0.196c-0.002,0.002-0.002,0.003-0.002,0.005c-0.013,0.023-0.028,0.045-0.029,0.07l-0.076,0.985
		l-0.154,1.914c-0.003,0.036,0.008,0.073,0.031,0.108c0.133,0.24,0.781,0.455,1.564,0.517c0.155,0.011,0.303,0.015,0.447,0.015
		l-0.321,0.411c-0.177-0.154-0.338-0.181-0.458-0.028l-5.541,7.088l-2.193,2.801c-0.011,0.015-0.018,0.031-0.028,0.045
		c-0.026,0.037-0.05,0.074-0.068,0.113c-0.01,0.019-0.016,0.037-0.024,0.057c-0.019,0.05-0.034,0.1-0.042,0.151
		c0,0.003-0.002,0.005-0.002,0.008c-0.199,1.312,3.391,2.74,5.957-0.544l3.145-4.022l0.246-0.312
		c0.005-0.006,0.006-0.015,0.011-0.019c0.057-0.074,0.105-0.159,0.147-0.248c0.005-0.011,0.011-0.021,0.016-0.031
		c0.139-0.312,0.196-0.704,0.191-1.13c0.282-0.249,0.539-0.515,0.768-0.793c0.026-0.032,0.057-0.062,0.083-0.094l8.401-10.747
		l2.704,1.904l4.813,13.84c-0.178,0.719-0.219,1.339-0.047,1.755l2.586,6.289c2.147,5.221,8.581,1.419,7.768-0.562l-5.898-14.342
		c-0.113-0.275-0.437-0.115-0.863,0.324l-0.654-1.882l3.049,2.146l-0.003-0.003l18.87,13.298c0.003,0.005,0.008,0.011,0.013,0.016
		c0.002,0.003,0.011-0.002,0.015,0.002c0.081,0.102,0.159,0.206,0.248,0.274c0.107,0.081,0.232,0.143,0.368,0.112
		c0.068-0.016,0.112-0.081,0.104-0.149c0-0.006-0.008-0.011-0.01-0.018l5.285-1.234l0.251,0.321
		c2.301,2.944,5.609,1.258,4.736,0.141l-1.075-1.375l15.566-3.632c0.405-0.094,0.468-1.24,0.164-2.547
		c-0.304-1.305-0.87-2.306-1.273-2.21l-2.614-1.218v-11.345l2.217-0.517c0.405-0.094,0.468-1.24,0.164-2.546
		c-0.304-1.305-0.87-2.306-1.273-2.21l-1.106-0.087V382.29c0-0.045-0.016-0.089-0.045-0.131c-0.01-0.05-0.029-0.091-0.062-0.123
		l-2.01-2.01c-0.034-0.034-0.083-0.052-0.139-0.06c-0.058-0.021-0.115-0.031-0.165-0.013l-0.321,0.112l8.325-6.859l29.717,42.481
		c0.003,0.458,0.091,0.866,0.298,1.163l3.153,4.515c2.617,3.747,6.767,1.906,5.774,0.484l-7.188-10.296
		c-0.12-0.172-0.298-0.139-0.5,0.034l-27.748-39.667l0.008-0.002l-13.586-19.409l0,0l-2.189-3.129v-2.615
		c0-0.376-0.666-0.703-1.691-0.929v-44.578c1.171-0.238,1.929-0.604,1.929-1.009v-6.833c0-0.444-0.904-0.823-2.261-1.043v-53.955
		c0.159-0.113,0.248-0.238,0.248-0.368l0.34-2.795c1.134-0.3,1.861-0.745,1.861-1.236v-0.836
		c31.902-0.253,57.255-2.733,57.296-5.888c0-0.032-0.006-0.065-0.013-0.097c0.007-0.032,0.013-0.065,0.013-0.097
		c-0.006-0.457-0.546-0.9-1.556-1.323C485.031,225.308,485.644,224.834,485.65,224.348z M98.388,341.756
		c0-0.395-0.701-0.74-1.78-0.978v0.706c0,0.026-0.006,0.05-0.013,0.076v-42.104c1.236-0.251,2.035-0.638,2.035-1.065v-0.944h0.334
		c0.219,0,0.4-0.521,0.481-1.26h2.01c-0.008,0.074-0.016,0.151-0.026,0.225c-1.342,0.921-4.578,8.092-4.617,10.911
		c-0.006,0.486,0.091,0.947,0.246,1.376l0.363,0.985l0.047,0.128c0.154,0.5,0.402,0.96,0.706,1.362l-0.334,5.669
		c-0.053,0.899,0.249,2.134,0.957,2.98c-0.006,0.053-0.013,0.113-0.018,0.16c-0.165,1.47,0.97,3.001,3.177,4.523
		c0.006,0.005,0.013,0.008,0.018,0.013c0.131,0.091,0.269,0.181,0.408,0.272c0.018,0.011,0.037,0.024,0.055,0.036
		c0.13,0.084,0.264,0.168,0.4,0.251c0.031,0.019,0.062,0.039,0.094,0.057c0.128,0.078,0.257,0.154,0.39,0.232
		c0.045,0.026,0.089,0.052,0.134,0.078c0.125,0.071,0.253,0.143,0.382,0.214c0.057,0.031,0.113,0.063,0.17,0.094
		c0.121,0.066,0.246,0.133,0.371,0.198c0.071,0.037,0.142,0.074,0.214,0.112c0.117,0.06,0.235,0.12,0.353,0.18
		c0.086,0.044,0.173,0.087,0.262,0.13c0.11,0.053,0.222,0.108,0.334,0.162c0.104,0.05,0.209,0.099,0.314,0.149
		c0.102,0.047,0.204,0.096,0.308,0.143c0.121,0.057,0.246,0.112,0.371,0.168c0.092,0.04,0.183,0.083,0.277,0.123
		c0.144,0.063,0.291,0.128,0.439,0.191c0.073,0.031,0.144,0.063,0.219,0.094l0.002,30.085l-9.078-12.977v-2.751H98.388z
		 M374.41,404.266l-1.535,1.969l0.006-0.003l-1.545,1.977l0.123-1.598c0.002-0.026-0.008-0.05-0.018-0.076
		c-0.002-0.005-0.002-0.008-0.003-0.013c-0.006-0.015-0.016-0.029-0.028-0.044c-0.015-0.023-0.036-0.045-0.058-0.068
		c-0.003-0.003-0.008-0.006-0.011-0.01c-0.044-0.039-0.096-0.076-0.162-0.112l0.232-3.002l0.481-6.191
		c0.225,0.023,0.457,0.042,0.698,0.053c0.049,0.003,0.1,0.003,0.151,0.006c0.104,0.005,0.207,0.008,0.312,0.01
		c0.11,0.003,0.215,0.011,0.327,0.011c2.248,0,4.098-0.484,4.098-1.057v-1.459l1.687-1.213l1.035,2.976l-3.399,0.836l-0.104-0.068
		c-0.003-0.005-0.008-0.011-0.013-0.016c-0.031-0.016-0.066-0.019-0.1-0.011c-0.005,0.003-0.011,0.008-0.016,0.013
		c-0.011,0.007-0.023,0.016-0.032,0.026c-0.021,0.023-0.036,0.052-0.037,0.083c0,0.005-0.002,0.01-0.002,0.015l0.01,2.536
		c-0.002,0.019,0.002,0.04,0.008,0.06c0.006,0.011,0.016,0.023,0.026,0.032c0.003,0.005,0.008,0.011,0.013,0.016l0.802,0.565
		l-2.933,3.75L374.41,404.266z M97.342,309.279c-0.036-0.207-0.055-0.419-0.052-0.64c0.019-1.414,0.844-3.922,1.828-6.189
		c-0.983,2.265-1.806,4.771-1.825,6.184C97.292,308.855,97.308,309.07,97.342,309.279z M380.481,314.551l-3.569,7.255
		c-0.206-0.06-0.437-0.115-0.688-0.162v-5.015l3.584-2.478C380.065,314.373,380.298,314.514,380.481,314.551z M417.744,295.198
		C417.744,295.198,417.744,295.199,417.744,295.198h-0.026c-0.238,0-0.434,0.567-0.521,1.372h-4.808
		c-0.013-0.662-0.039-1.266-0.074-1.77c2.183-0.406,4.073-0.839,5.622-1.292v1.691H417.744z M378.771,297.921l-4.571,11.589
		c-0.256-0.026-0.525-0.04-0.803-0.04c-0.194,0-0.376-0.006-0.56,0c-1.289,0.05-2.267,0.491-2.267,0.761v3.388l-3.302-2.461v-0.002
		l0.003,0.002c0.073-0.185,0.115-0.35,0.13-0.489c0.002-0.011,0.005-0.026,0.006-0.039c0-0.011-0.002-0.018-0.002-0.029
		c0.003-0.06,0.002-0.117-0.011-0.162c-0.015-0.055-0.037-0.099-0.071-0.13l-0.011-0.015l-3.388-2.534l-1.247-0.936
		c-0.002-0.002-0.005,0-0.006-0.002l0,0c-0.036-0.026-0.071-0.039-0.12-0.04c-0.002,0-0.002,0-0.003,0c0,0,0,0-0.002,0
		c-0.042-0.002-0.087,0.005-0.138,0.019c-0.149,0.042-0.332,0.152-0.533,0.312l-2.034-1.525c-0.411-2.62-0.991-5.198-1.729-7.724
		c2.206,0.065,4.481,0.108,6.824,0.128c1.103,0.01,2.223,0.01,3.352,0.008c0.202,0,0.406-0.002,0.611-0.002
		c0.442-0.002,0.884-0.003,1.331-0.006c0.62-0.005,1.244-0.01,1.872-0.018c0.04,0,0.081-0.002,0.123-0.002
		c0.806-0.01,1.618-0.023,2.434-0.039c1.368-0.026,2.72-0.06,4.06-0.1C378.729,297.863,378.748,297.892,378.771,297.921z
		 M364.723,313.515l0.076,0.057c0.013,0.018,0.028,0.031,0.044,0.044h0.002l0.002,0.002c0.157,0.099,0.452-0.023,0.797-0.29
		l4.881,3.65c0.01,0.008,0.023,0.008,0.034,0.011c0.003,0.002,0.006,0.003,0.01,0.005v4.647c-0.024,0.005-0.045,0.01-0.07,0.015
		c-0.024,0.005-0.047,0.01-0.07,0.015c-0.087,0.018-0.172,0.037-0.253,0.057c-0.028,0.006-0.053,0.015-0.081,0.021
		c-0.074,0.019-0.147,0.039-0.217,0.058c-0.028,0.008-0.052,0.016-0.078,0.024c-0.065,0.021-0.13,0.04-0.189,0.063
		c-0.024,0.01-0.047,0.018-0.071,0.028c-0.055,0.021-0.11,0.042-0.16,0.065c-0.024,0.011-0.047,0.023-0.07,0.034
		c-0.044,0.021-0.086,0.042-0.123,0.063c-0.026,0.015-0.049,0.031-0.071,0.045c-0.029,0.018-0.058,0.037-0.083,0.057
		c-0.028,0.021-0.049,0.042-0.071,0.063c-0.015,0.015-0.031,0.027-0.044,0.042c-0.026,0.029-0.045,0.058-0.062,0.087
		c-0.002,0.003-0.003,0.005-0.005,0.006l-3.078-6.608L364.723,313.515z M395.442,394.055l-0.873-0.07l0.003-0.003l-2.256-0.175
		l-1.108-0.087l-2.35,0.578l-0.371,0.091l0,0l-2.189,0.538l4.911-6.283l3.817,4.882L395.442,394.055z M377.471,390.505
		c-0.003-0.037-0.016-0.073-0.034-0.108c-0.008-0.013-0.015-0.028-0.024-0.04c-0.058-0.086-0.157-0.167-0.295-0.243
		c-0.016-0.01-0.034-0.018-0.052-0.026c-0.047-0.024-0.097-0.049-0.152-0.071c-0.037-0.016-0.074-0.031-0.115-0.047
		c-0.028-0.01-0.055-0.019-0.084-0.029c-0.147-0.052-0.309-0.102-0.491-0.146v-4.801h0.002l2.251,6.472l-0.997,0.717v-1.652
		C377.479,390.523,377.471,390.515,377.471,390.505z M381.415,383.189c0.601-0.444,0.92-0.879,0.811-1.195l-1.354-3.896
		c-0.11-0.316-0.627-0.449-1.37-0.415l-2.515-7.233l11.052,14.143l-4.908,3.527L381.415,383.189z M387.635,387.36l-3.3,4.222
		l-0.515-1.48L387.635,387.36z M385.405,310.288c-0.005,0.003-0.011,0.002-0.016,0.005l0.361-0.249L385.405,310.288z
		 M383.66,307.796c0.005-0.003,0.007-0.01,0.01-0.013l0.434-0.308c-0.298-0.257-0.567-0.423-0.756-0.419
		c-0.057,0-0.099,0.028-0.139,0.057l-0.07,0.042c-0.021,0.015-0.04,0.036-0.057,0.057l-5.025,3.457
		c-0.181,0.125-0.155,0.502,0.023,0.988l-1.856,1.283v-0.69l0.418-1.059c0.057-0.144-0.1-0.353-0.387-0.568l4.654-11.776
		c0.202,0.002,0.345-0.04,0.38-0.134l0.377-0.97c-0.057,0-0.117,0-0.173,0c2.557-0.097,5.049-0.22,7.46-0.364
		c3.927-0.236,7.635-0.536,11.058-0.884L383.66,307.796z M414.681,385.955c-0.044,0.016-0.081,0.049-0.113,0.092
		c-0.052,0.01-0.096,0.028-0.128,0.062l-2.01,2.01c-0.037,0.037-0.053,0.089-0.062,0.151c-0.011,0.028-0.028,0.055-0.028,0.084
		v7.042l-12.908-1.023l-6.349-8.122l3.705-4.74v0.003l4.403-5.621l-0.01-0.005l2.335-2.988l5.329,3.831c-0.003,0-0.005,0-0.008,0
		l2.709,1.942l1.467,1.056l-0.005,0.002l1.13,0.811l0.003-0.002l3.814,2.741v1.535L414.681,385.955z M413.866,377.296
		c-0.003,0.002-0.005,0.006-0.008,0.008l-0.751-0.541l0.008-0.003l-1.043-0.753l-0.01,0.005l-7.026-5.051l13.55-17.33
		c0.347,0.13,0.787,0.243,1.292,0.334v17.51h0.002v0.492l-0.002,0.002v1.289l0.002-0.002v2.607h-0.002v1.383
		c-0.581,0.112-1.057,0.256-1.391,0.423c-0.008,0.003-0.015,0.006-0.021,0.011c-0.058,0.029-0.113,0.06-0.162,0.092
		c-0.032,0.021-0.063,0.04-0.092,0.062c-0.018,0.015-0.036,0.028-0.052,0.042c-0.039,0.032-0.073,0.065-0.1,0.097
		c0,0-0.002,0.002-0.002,0.003c-0.066,0.079-0.108,0.164-0.108,0.249v0.551l0.006-0.003v1.482l-1.247-0.895l0.008-0.003
		L413.866,377.296z M419.879,345.734c-1.294,0.222-2.163,0.589-2.163,1.02v2.125l-3.135,4.011c-0.002,0-0.003,0-0.005,0
		l-14.514,18.569c0.002,0,0.002,0,0.002,0l-2.471,3.161l-0.008-0.005l-1.304,1.681h0.002l-5.489,7.021l-0.251-0.322l-0.1-0.128l0,0
		l-12.76-16.324v-1.752c0-0.086-0.049-0.168-0.133-0.246c-0.006-0.005-0.015-0.011-0.019-0.016c-0.029-0.026-0.06-0.052-0.099-0.076
		c-0.246-0.17-0.667-0.316-1.205-0.429v-9.577h2.686c0.04,2.073,0.198,3.634,0.382,3.634h1.668c0.214,0,0.379-2.102,0.379-4.668
		c0-2.565-0.165-4.668-0.379-4.668h-1.668c-0.185,0-0.342,1.561-0.382,3.634h-2.686V329.75c0.785-0.159,1.365-0.382,1.621-0.636
		c0.013-0.013,0.028-0.026,0.039-0.037c0.018-0.019,0.031-0.04,0.044-0.062c0.016-0.024,0.034-0.049,0.044-0.073
		c0-0.002,0-0.003,0.002-0.005c0.015-0.037,0.028-0.074,0.028-0.113v-3.462l6.799-13.667l0.942-0.656
		c0.015-0.005,0.029-0.008,0.042-0.015l0.008-0.008c0.006-0.003,0.015-0.002,0.019-0.007l0.057-0.042
		c0.181-0.125,0.154-0.504-0.027-0.993l17.456-12.069c0.16,0.086,0.296,0.112,0.381,0.053l3.342-2.311
		c1.124-0.157,2.199-0.321,3.222-0.491c-0.036,0.669-0.055,1.475-0.055,2.338c0,2.298,0.141,4.171,0.334,4.171h0.026
		c0.002,0,0.003,0.003,0.006,0.003h1.495c0.165,0,0.306-1.396,0.342-3.248h4.808c0.087,0.8,0.285,1.362,0.521,1.362h0.015
		c0.003,0,0.006,0.005,0.011,0.005h0.191v0.445c0,0.308,0.44,0.589,1.163,0.811c0.223,0.07,0.476,0.133,0.75,0.189v3.041h0.031
		v41.458H419.879z M215.542,264.262c0.5,0.266,0.994,0.662,1.406,1.158C216.537,264.925,216.042,264.528,215.542,264.262
		L215.542,264.262z M217.697,269.857c-0.008,0.037-0.018,0.074-0.028,0.112C217.679,269.93,217.687,269.893,217.697,269.857z
		 M217.94,268.468c-0.003,0.031-0.006,0.063-0.01,0.096C217.933,268.531,217.937,268.5,217.94,268.468z M217.891,268.872
		c-0.005,0.032-0.008,0.063-0.015,0.096C217.881,268.936,217.886,268.905,217.891,268.872z M217.8,269.392
		c-0.005,0.023-0.01,0.047-0.015,0.07C217.791,269.438,217.796,269.413,217.8,269.392z M217.012,265.496
		c0.011,0.015,0.023,0.031,0.034,0.045C217.035,265.527,217.023,265.511,217.012,265.496z M217.548,270.432
		c-0.002,0.005-0.002,0.008-0.003,0.013C217.546,270.44,217.546,270.437,217.548,270.432z M112.554,235.656
		c0.097-0.039,0.194-0.076,0.295-0.113C112.748,235.579,112.651,235.617,112.554,235.656z M106.85,248.197L106.85,248.197
		c-0.507,0.196-1.023,0.507-1.477,0.918C105.827,248.704,106.344,248.391,106.85,248.197z M105.265,249.214
		c0.008-0.008,0.018-0.018,0.026-0.026C105.283,249.196,105.275,249.206,105.265,249.214z M103.952,252.409c0,0.032,0,0.065,0,0.099
		C103.952,252.474,103.952,252.441,103.952,252.409z M103.975,253.01c-0.002-0.024-0.003-0.05-0.005-0.074
		C103.97,252.96,103.973,252.985,103.975,253.01z M103.957,252.1c0.002-0.032,0.002-0.065,0.003-0.097
		C103.958,252.033,103.957,252.066,103.957,252.1z M104.075,254.017c-0.002-0.006-0.002-0.013-0.002-0.019
		C104.073,254.004,104.075,254.01,104.075,254.017z M104.018,253.526c-0.005-0.039-0.008-0.079-0.011-0.118
		C104.01,253.449,104.013,253.487,104.018,253.526z M196.803,344.716c-0.996,0-1.88,1.776-2.353,4.392v-12.352
		c3.188-0.483,5.91-1.098,8.063-1.838l-0.585,5.068c-0.264,1.563-0.476,3.14-0.64,4.732L196.803,344.716z M364.702,344.716
		c-0.13-1.257-0.29-2.505-0.483-3.744l-0.852-7.366c-0.13-0.554-0.266-1.104-0.406-1.653l-1.529-13.154h0.002l-0.988-8.487
		l0.436,0.325l7.922,17.001v1.187c0,0.019,0.01,0.039,0.015,0.058c0.005,0.021,0.007,0.044,0.015,0.065
		c0.008,0.019,0.023,0.039,0.034,0.058c0.015,0.024,0.031,0.049,0.052,0.073c0.011,0.013,0.026,0.026,0.039,0.037
		c0.036,0.034,0.074,0.068,0.121,0.1c0.002,0.002,0.003,0.002,0.005,0.003c0.296,0.209,0.816,0.392,1.487,0.53v16.123
		c-0.398-0.734-0.855-1.159-1.341-1.159L364.702,344.716z M370.569,370.541v9.452l-0.782,10.053
		c-0.225,0.104-0.376,0.219-0.445,0.34c-0.005,0.008-0.011,0.016-0.016,0.026c-0.016,0.034-0.026,0.07-0.028,0.105
		c0,0.005-0.003,0.01-0.003,0.015v1.216l-8.574-7.127l1.381-1.977L370.569,370.541z M416.498,389.929l0.314-0.314l3.067-1.065v7.442
		l-3.381-0.267V389.929z M427.962,378.227c0-0.219-0.219-0.421-0.601-0.596l-0.147-1.896l0.008-0.002l-0.102-1.231h-0.002
		l-0.245-3.143l0,0l-0.165-2.131l-0.674-8.662v-6.696c0.128-0.029,0.249-0.06,0.364-0.092l12.048,17.216l-0.029,0.029h0.002
		l-10.456,8.694v-1.491H427.962z M310.253,200.408c5.114,13.592,12.111,32.189,15.226,40.475c0.107,0.538,0.301,1.069,0.598,1.587
		c0.291,0.776,0.53,1.406,0.7,1.859c0.005,0.013,0.013,0.026,0.018,0.039c0.068,0.18,0.123,0.326,0.151,0.4
		c-0.034-0.089-0.062-0.18-0.089-0.27c0.419,0.98,1.203,1.791,2.32,2.426c2.273,1.295,5.901,1.878,10.454,1.786
		c8.215-0.165,19.454-2.544,31.309-7.003c1.027-0.385,2.039-0.781,3.036-1.184c6.194-2.499,11.813-5.297,16.561-8.16
		c8.087,0.453,17.348,0.74,27.227,0.813v0.832c0,0.491,0.727,0.938,1.861,1.236l0.34,2.795c0,0.13,0.089,0.254,0.248,0.368v20.866
		c-2.032-0.855-5.493-1.602-10.032-2.197c-0.899-0.118-1.838-0.23-2.818-0.337c-8.688-0.942-20.47-1.399-33.429-1.151
		c-15.212,0.29-28.764,1.488-37.576,3.122c-0.102,0.019-0.206,0.037-0.306,0.057c-0.024,0.005-0.047,0.01-0.071,0.013
		c-1.874,0.356-3.525,0.73-4.921,1.122c-0.019,0.005-0.039,0.011-0.058,0.016c-0.155,0.044-0.309,0.087-0.458,0.133
		c-0.416,0.123-0.803,0.248-1.168,0.374c-11.819-7.577-26.474-12.294-43.041-12.852c-0.029-0.013-0.06-0.028-0.091-0.04v-27.284
		c0.057-0.023,0.113-0.047,0.165-0.073c1.887-0.737,2.975-1.085,4.868-1.224v12.603c0,0.533,1.215,0.978,2.696,0.978
		c1.482,0,2.696-0.445,2.696-0.978v-13.029c0.73-0.223,1.189-0.533,1.189-0.87v-3.668c0,0.005-0.002,0.01-0.002,0.015
		c-0.013-0.33-0.47-0.617-1.187-0.826v-7.684c0.419-0.109,0.74-0.243,0.926-0.39c0.089-0.024,0.177-0.052,0.262-0.086
		L310.253,200.408z M268.125,205.017c0.086,0.036,0.175,0.063,0.262,0.086c0.186,0.147,0.507,0.282,0.926,0.39v7.684
		c-0.716,0.209-1.174,0.496-1.187,0.826c0-0.005-0.002-0.01-0.002-0.015v3.668c0,0.338,0.458,0.648,1.189,0.87v13.029
		c0,0.533,1.214,0.978,2.696,0.978s2.696-0.445,2.696-0.978v-12.603c1.893,0.139,2.981,0.487,4.868,1.224
		c0.024,0.011,0.045,0.016,0.07,0.028c0.029,0.013,0.065,0.024,0.096,0.037v27.29c-0.032,0.013-0.065,0.028-0.094,0.042
		c-0.884,0.031-1.763,0.07-2.636,0.123c0.002-0.003,0.003-0.006,0.003-0.01c-3.854,0.236-7.595,0.708-11.217,1.383
		c-0.005,0.002-0.01,0.002-0.015,0.003c-0.575,0.107-1.146,0.22-1.715,0.338c-0.073,0.015-0.144,0.031-0.217,0.045
		c-0.51,0.107-1.019,0.219-1.524,0.334c-0.139,0.032-0.277,0.065-0.416,0.097c-0.445,0.104-0.891,0.211-1.331,0.321
		c-0.209,0.052-0.418,0.107-0.627,0.16c-0.374,0.097-0.746,0.193-1.117,0.295c-0.303,0.083-0.602,0.168-0.904,0.254
		c-0.279,0.079-0.559,0.157-0.834,0.238c-0.461,0.136-0.92,0.279-1.376,0.421c-0.117,0.037-0.236,0.071-0.353,0.108
		c-3.025,0.963-5.941,2.086-8.744,3.349c-0.008,0.003-0.018,0.008-0.026,0.011l0,0c-7.944,3.584-14.956,8.317-20.839,13.918
		c-5.072,4.829-9.303,10.3-12.569,16.238c0.256-2.277,0.51-4.537,0.759-6.759c0.377-0.504,0.815-1.247,1.26-2.116l0.457-0.853
		c1.389-2.612,2.931-6.649,2.95-8.595c0.013-1.331-0.678-2.479-1.553-3.24l0.316-5.7c0.002-0.026-0.002-0.055,0-0.083
		c2.061,0.193,3.998,0.283,5.791,0.272c4.44-0.028,7.986-0.685,10.289-1.997c1.206-0.685,2.069-1.551,2.546-2.596
		c-0.023,0.068-0.042,0.136-0.066,0.204c0.029-0.076,0.084-0.222,0.151-0.402c0.011-0.029,0.026-0.057,0.037-0.087
		c0.217-0.576,0.53-1.407,0.921-2.45c0.052-0.076,0.151-0.33,0.257-0.687c3.266-8.683,11.094-29.489,16.893-44.902l0.003,0.002
		c0.525-1.394,0.944-2.505,1.414-3.752l-0.005-0.003c0.121-0.324,0.243-0.644,0.361-0.96L268.125,205.017z M132.691,145.999
		c5.885,1.25,11.678,2.346,17.331,3.297c2.115,0.355,4.21,0.69,6.283,1.002c4.074,0.615,8.061,1.151,11.942,1.608
		c1.31,0.154,2.607,0.298,3.891,0.434c0.151,0.016,0.303,0.032,0.453,0.047c0.622,0.065,1.242,0.128,1.859,0.188
		c-0.028,0.024-0.053,0.05-0.081,0.075c-0.073,0.065-0.144,0.13-0.212,0.196c-0.091,0.087-0.178,0.176-0.261,0.269
		c-0.078,0.087-0.154,0.175-0.225,0.266c-0.063,0.079-0.123,0.16-0.18,0.243c-0.058,0.084-0.113,0.17-0.165,0.257
		c-0.07,0.113-0.133,0.23-0.193,0.348c-0.036,0.071-0.068,0.143-0.099,0.215c-0.031,0.07-0.068,0.136-0.096,0.207
		c-0.066,0.175-0.364,0.98-0.593,1.595c-0.539,1.431-1.284,3.413-2.183,5.804c-0.74,0.457-1.467,1.294-1.856,2.49
		c-0.306,0.944-0.534,2.533-0.68,4.247c-6.727,17.88-17.293,45.964-19.343,51.413c-0.016,0.044-0.029,0.089-0.044,0.134
		c-0.06,0.159-0.109,0.287-0.134,0.358c0.023-0.06,0.05-0.117,0.074-0.176c-0.429,1.453-0.142,3.116,0.772,4.918
		c0.604,1.189,1.48,2.437,2.602,3.726l-0.347-0.011v0.026c-23.681-1.062-41.791,1.684-42.994,6.961
		c0.003-0.045,0.002-0.092,0.006-0.138c-0.006,0.058-0.019,0.167-0.034,0.295c-0.006,0.042-0.016,0.083-0.021,0.125
		c-0.011,0.097-0.037,0.343-0.071,0.654c-0.039,0.324-0.073,0.617-0.083,0.704c-0.002,0.019,0.002,0.04,0,0.06
		c-0.01,0.083-0.018,0.165-0.028,0.248l0,0c-0.013,0.115-0.026,0.227-0.037,0.335c-0.057,0.029-0.117,0.062-0.18,0.102
		c-1.077,0.669-1.699,2.089-1.786,3.129l-0.483,5.689c-0.972,0.633-1.817,1.673-1.989,2.992c-0.253,1.93,0.711,6.142,1.723,8.922
		l0.283,0.776c-1.2,10.673-2.635,23.422-3.875,34.454h-2.201c-0.081-0.74-0.262-1.26-0.481-1.26h-0.334v-2.048
		c0-0.484-1.023-0.896-2.542-1.124v-74.788c0.74-0.185,1.203-0.444,1.203-0.725l1.242-6.855c0.432-0.24,0.855-0.517,1.266-0.827
		c0.019-0.015,0.039-0.031,0.06-0.045c0.238-0.183,0.47-0.377,0.696-0.585c0.045-0.04,0.091-0.081,0.136-0.123
		c0.108-0.102,0.215-0.207,0.321-0.316c0.076-0.078,0.151-0.159,0.227-0.24c0.078-0.084,0.16-0.162,0.236-0.251
		c3.261-3.734,3.593-8.88,0.74-11.494c-0.003-0.002-0.005-0.005-0.008-0.006c-0.006-0.006-0.013-0.01-0.019-0.016
		c-0.154-0.139-0.316-0.267-0.483-0.387c-0.049-0.036-0.097-0.068-0.147-0.1c-0.144-0.097-0.29-0.186-0.442-0.269
		c-0.036-0.019-0.071-0.04-0.108-0.06c-0.392-0.204-0.808-0.358-1.242-0.466c-0.029-0.008-0.06-0.013-0.089-0.021
		c-0.131-0.031-0.264-0.058-0.398-0.081l28.668-47.431C129.519,145.316,131.1,145.663,132.691,145.999z M74.5,367.241l14.263-18.245
		c0.361,0.136,0.818,0.253,1.341,0.348v24.52c-1.213,0.238-1.998,0.606-1.998,1.028v2.133L74.5,367.241z M98.639,376.461v-1.571
		c0-0.23-0.23-0.442-0.633-0.628l-1.41-18.127v-6.885c0.141-0.032,0.275-0.066,0.403-0.102l10.469,14.966v5.005L98.639,376.461z
		 M102.224,386.34c0,0.01-0.002,0.019-0.002,0.029c0,0.003,0,0.006,0,0.01c0,0.01,0.002,0.021,0.002,0.032
		c0.002,0.342,0.06,0.787,0.178,1.266C102.274,387.163,102.216,386.688,102.224,386.34z M199.522,387.676
		c0.118-0.481,0.178-0.928,0.178-1.27c0-0.01,0.002-0.019,0.002-0.028c0-0.005,0-0.008,0-0.013c0-0.01-0.002-0.016-0.002-0.026
		C199.708,386.688,199.65,387.163,199.522,387.676z M364.599,362.112h3.671l1.213,3.486v1.346l-9.439,13.494
		C362.309,374.625,363.859,368.484,364.599,362.112z M430.247,411.912l-12.065-5.624l12.065-2.816V411.912z M428.845,396.702
		l-0.853-10.971l2.256-0.784v11.866L428.845,396.702z"/>
	<polygon points="485.652,224.34 485.65,224.348 485.652,224.354 	"/>
	<path d="M233.109,144.298c-0.002,0.01-0.005,0.018-0.008,0.028c-0.002,0.01-0.002,0.018-0.005,0.028
		L233.109,144.298z"/>
	<path d="M41.618,103.697c0.002-0.01,0.005-0.018,0.008-0.028c0.002-0.01,0.002-0.018,0.005-0.028L41.618,103.697z"
		/>
</g>
</svg>
