<?xml version="1.0" encoding="utf-8"?>
<!DOCTYPE svg PUBLIC "-//W3C//DTD SVG 1.1//EN" "http://www.w3.org/Graphics/SVG/1.1/DTD/svg11.dtd">
<svg version="1.1" id="Layer_1" xmlns="http://www.w3.org/2000/svg" xmlns:xlink="http://www.w3.org/1999/xlink" x="0px" y="0px"
	 width="512px" height="512px" viewBox="0 0 512 512" enable-background="new 0 0 512 512" xml:space="preserve">
<g fill="rgba(255,255,255,.05)">
	<path d="M256,88.747c-92.371,0-167.253,74.882-167.253,167.253S163.629,423.253,256,423.253S423.253,348.371,423.253,256
		S348.371,88.747,256,88.747z M256,320.853c-35.818,0-64.853-29.036-64.853-64.853c0-35.817,29.036-64.853,64.853-64.853
		s64.853,29.036,64.853,64.853S291.818,320.853,256,320.853z"/>
	<path d="M256,205.938c-27.649,0-50.062,22.414-50.062,50.062c0,27.649,22.414,50.062,50.062,50.062s50.062-22.414,50.062-50.062
		C306.062,228.351,283.649,205.938,256,205.938z M256,262.827c-3.77,0-6.827-3.056-6.827-6.827s3.056-6.827,6.827-6.827
		s6.827,3.056,6.827,6.827S259.77,262.827,256,262.827z"/>
</g>
</svg>
